<?xml version="1.0" encoding="utf-8"?>
<!-- Generator: Adobe Illustrator 16.0.0, SVG Export Plug-In . SVG Version: 6.00 Build 0)  -->
<!DOCTYPE svg PUBLIC "-//W3C//DTD SVG 1.1//EN" "http://www.w3.org/Graphics/SVG/1.1/DTD/svg11.dtd">
<svg version="1.1" id="Layer_1" xmlns="http://www.w3.org/2000/svg" xmlns:xlink="http://www.w3.org/1999/xlink" x="0px" y="0px"
	 width="283.46px" height="283.46px" viewBox="0 0 283.46 283.46" enable-background="new 0 0 283.46 283.46" xml:space="preserve">
<path fill="#BCBEC0" d="M180.025,181.65l-23.504-31.506c4.861-5.637,7.812-12.967,7.812-20.978c0-17.736-14.43-32.166-32.167-32.166
	C114.43,97,100,111.43,100,129.166c0,17.738,14.43,32.167,32.166,32.167c5.401,0,10.492-1.346,14.966-3.707l23.275,31.199
	L180.025,181.65z M110,129.166c0-12.223,9.943-22.166,22.166-22.166c12.222,0,22.167,9.943,22.167,22.166
	c0,6.391-2.723,12.154-7.062,16.203l-3.914,2.92c-3.288,1.932-7.111,3.045-11.191,3.045C119.943,151.333,110,141.389,110,129.166z"
	/>
</svg>
