<?xml version="1.0" encoding="utf-8"?>
<!-- Generator: Adobe Illustrator 16.0.0, SVG Export Plug-In . SVG Version: 6.00 Build 0)  -->
<!DOCTYPE svg PUBLIC "-//W3C//DTD SVG 1.1//EN" "http://www.w3.org/Graphics/SVG/1.1/DTD/svg11.dtd">
<svg version="1.1" id="Layer_1" xmlns="http://www.w3.org/2000/svg" xmlns:xlink="http://www.w3.org/1999/xlink" x="0px" y="0px"
	 width="283.46px" height="283.46px" viewBox="0 0 283.46 283.46" enable-background="new 0 0 283.46 283.46" xml:space="preserve">
<g>
	<path fill="#FFFFFF" d="M184.999,78.77H98.46c-10.859,0-19.688,8.819-19.688,19.696v86.529c0,10.864,8.819,19.692,19.688,19.692
		h86.538c10.873,0,19.7-8.819,19.7-19.692V98.465C204.691,87.588,195.872,78.77,184.999,78.77z M168.689,96.131
		c0-1.933,1.571-3.499,3.513-3.499h15.204c1.942,0,3.513,1.575,3.513,3.499v15.209c0,1.955-1.57,3.517-3.513,3.517h-15.204
		c-1.941,0-3.513-1.571-3.513-3.517V96.131z M118.528,132.637c3.633-9.272,12.664-15.843,23.204-15.843
		c10.545,0,19.571,6.571,23.204,15.843c1.113,2.826,1.726,5.885,1.726,9.091c0,13.737-11.192,24.938-24.938,24.938
		c-13.742,0-24.925-11.201-24.925-24.938C116.806,138.522,117.415,135.463,118.528,132.637z M191.367,184.995
		c0,3.495-2.855,6.352-6.368,6.352H98.469c-3.499,0-6.342-2.848-6.342-6.352v-52.357h12.43c-0.716,2.912-1.087,5.954-1.087,9.091
		c0,21.142,17.125,38.262,38.271,38.262c21.149,0,38.271-17.12,38.271-38.262c0-3.137-0.371-6.179-1.088-9.091h12.443V184.995
		L191.367,184.995z"/>
</g>
</svg>
