<?xml version="1.0" encoding="utf-8"?>
<!-- Generator: Adobe Illustrator 16.0.0, SVG Export Plug-In . SVG Version: 6.00 Build 0)  -->
<!DOCTYPE svg PUBLIC "-//W3C//DTD SVG 1.1//EN" "http://www.w3.org/Graphics/SVG/1.1/DTD/svg11.dtd">
<svg version="1.1" id="Layer_1" xmlns="http://www.w3.org/2000/svg" xmlns:xlink="http://www.w3.org/1999/xlink" x="0px" y="0px"
	 width="265.392px" height="56.693px" viewBox="0 0 265.392 56.693" enable-background="new 0 0 265.392 56.693"
	 xml:space="preserve">
<linearGradient id="SVGID_1_" gradientUnits="userSpaceOnUse" x1="169.3801" y1="-237.5413" x2="196.1379" y2="-237.5413" gradientTransform="matrix(1 0 0 -1 -164.2695 -198.0376)">
	<stop  offset="0" style="stop-color:#FFFFFF"/>
	<stop  offset="1" style="stop-color:#000000"/>
</linearGradient>
<polygon fill="url(#SVGID_1_)" points="31.868,49.108 19.285,49.108 5.111,29.899 17.694,29.899 "/>
<linearGradient id="SVGID_2_" gradientUnits="userSpaceOnUse" x1="196.9329" y1="-247.1453" x2="196.9329" y2="-200.2629" gradientTransform="matrix(1 0 0 -1 -164.2695 -198.0376)">
	<stop  offset="0" style="stop-color:#FFFFFF"/>
	<stop  offset="1" style="stop-color:#000000"/>
</linearGradient>
<polygon fill="url(#SVGID_2_)" points="31.867,49.108 19.284,49.108 33.456,2.225 46.039,2.225 "/>
<linearGradient id="SVGID_3_" gradientUnits="userSpaceOnUse" x1="197.6106" y1="-223.7043" x2="238.5403" y2="-223.7043" gradientTransform="matrix(1 0 0 -1 -164.2695 -198.0376)">
	<stop  offset="0" style="stop-color:#FFFFFF"/>
	<stop  offset="1" style="stop-color:#000000"/>
</linearGradient>
<polygon fill="url(#SVGID_3_)" points="74.271,49.108 61.688,49.108 33.341,2.225 45.924,2.225 "/>
<linearGradient id="SVGID_4_" gradientUnits="userSpaceOnUse" x1="225.9563" y1="-223.7043" x2="266.8879" y2="-223.7043" gradientTransform="matrix(1 0 0 -1 -164.2695 -198.0376)">
	<stop  offset="0" style="stop-color:#000000"/>
	<stop  offset="1" style="stop-color:#FFFFFF"/>
</linearGradient>
<polygon fill="url(#SVGID_4_)" points="102.617,49.108 90.034,49.108 61.687,2.225 74.27,2.225 "/>
<rect x="61.688" y="2.225" fill="#D1D3D4" width="12.583" height="46.884"/>
<linearGradient id="SVGID_5_" gradientUnits="userSpaceOnUse" x1="260.1057" y1="-252.8943" x2="266.8036" y2="-239.1678" gradientTransform="matrix(1 0 0 -1 -164.2695 -198.0376)">
	<stop  offset="0" style="stop-color:#000000"/>
	<stop  offset="0.1461" style="stop-color:#393939"/>
	<stop  offset="0.3179" style="stop-color:#747474"/>
	<stop  offset="0.4838" style="stop-color:#A6A6A6"/>
	<stop  offset="0.639" style="stop-color:#CDCDCD"/>
	<stop  offset="0.7813" style="stop-color:#E8E8E8"/>
	<stop  offset="0.9061" style="stop-color:#F9F9F9"/>
	<stop  offset="1" style="stop-color:#FFFFFF"/>
</linearGradient>
<polygon fill="url(#SVGID_5_)" points="102.617,49.108 90.034,49.108 97.12,44.072 109.703,44.072 "/>
<path fill="#F47920" d="M123.365,17.117c-8.833,0-15.995,7.162-15.995,15.996c0,8.833,7.162,15.995,15.995,15.995
	c8.834,0,15.996-7.162,15.996-15.995C139.361,24.279,132.198,17.117,123.365,17.117z M123.365,35.064
	c-1.077,0-1.951-0.874-1.951-1.951c0-1.078,0.874-1.952,1.951-1.952c1.078,0,1.952,0.874,1.952,1.952
	C125.317,34.19,124.443,35.064,123.365,35.064z"/>
<g>
	<path fill="#FFFFFF" d="M143.958,8.754h5.603v35.318h-5.603V8.754z"/>
	<path fill="#FFFFFF" d="M167.841,19.449c8.756,0,14.936,4.875,14.936,12.585c0,8.904-8.434,12.585-15.644,12.585
		c-8.24,0-14.808-4.726-14.808-12.485C152.325,24.075,159.406,19.449,167.841,19.449z M167.519,41.386
		c6.18,0,9.526-4.428,9.526-9.303c0-4.179-2.574-9.302-9.526-9.302c-6.953,0-9.464,5.073-9.464,9.352
		C158.056,36.909,161.274,41.386,167.519,41.386z"/>
	<path fill="#FFFFFF" d="M196.484,51.086c5.794,0,10.043-2.388,10.043-8.456v-2.687h-0.129c-1.674,2.238-5.15,4.029-9.914,4.029
		c-7.79,0-13.262-5.074-13.262-11.739c0-8.158,6.889-12.784,14.034-12.784c5.406,0,8.368,2.188,9.721,4.179h0.129l0.258-3.632h4.957
		c-0.129,1.741-0.258,3.683-0.258,6.616V40.59c0,5.571-1.416,8.904-4.442,10.994c-3.024,2.188-7.402,2.886-11.33,2.886
		c-3.798,0-7.854-0.696-10.429-1.94l1.416-3.382C189.403,50.141,192.621,51.086,196.484,51.086z M198.157,40.689
		c3.478,0,6.631-1.741,7.854-4.526c0.321-0.746,0.45-1.592,0.45-2.338v-4.328c0-0.746-0.129-1.393-0.321-1.989
		c-1.03-2.536-3.798-4.626-7.982-4.626c-5.344,0-9.206,3.531-9.206,9.104C188.951,36.71,192.041,40.689,198.157,40.689z"/>
	<path fill="#FFFFFF" d="M216.567,26.513c0-2.487-0.129-4.478-0.257-6.518h4.957l0.257,3.88h0.129
		c1.738-2.288,4.636-4.427,9.85-4.427c4.249,0,7.469,2.039,8.819,4.825h0.129c0.966-1.343,2.189-2.388,3.478-3.134
		c1.932-1.096,3.927-1.691,6.889-1.691c4.12,0,10.235,2.089,10.235,10.446v14.177h-5.536v-13.58c0-4.676-2.188-7.412-6.76-7.412
		c-3.22,0-5.729,1.791-6.695,3.881c-0.257,0.696-0.516,1.442-0.516,2.238v14.873h-5.472V29.646c0-3.83-2.254-6.566-6.502-6.566
		c-3.541,0-6.116,2.141-7.082,4.328c-0.258,0.646-0.386,1.442-0.386,2.139v14.525h-5.537V26.513z"/>
</g>
</svg>
