<?xml version="1.0" encoding="utf-8"?>
<!-- Generator: Adobe Illustrator 16.0.0, SVG Export Plug-In . SVG Version: 6.00 Build 0)  -->
<!DOCTYPE svg PUBLIC "-//W3C//DTD SVG 1.1//EN" "http://www.w3.org/Graphics/SVG/1.1/DTD/svg11.dtd">
<svg version="1.1" id="Layer_1" xmlns="http://www.w3.org/2000/svg" xmlns:xlink="http://www.w3.org/1999/xlink" x="0px" y="0px"
	 width="283.46px" height="283.46px" viewBox="0 0 283.46 283.46" enable-background="new 0 0 283.46 283.46" xml:space="preserve">
<g>
	<g>
		<path fill="#FFFFFF" d="M129.59,71.715h-7.943l-5.354,20.589l-5.565-20.589h-8.289c1.661,4.85,3.382,9.738,5.035,14.614
			c2.52,7.317,4.09,12.823,4.807,16.585v21.245h7.857v-21.245L129.59,71.715z M150.585,111.496V97.81
			c0-4.181-0.716-7.231-2.209-9.198c-1.967-2.68-4.708-4.004-8.271-4.004c-3.517,0-6.291,1.324-8.254,4.004
			c-1.501,1.967-2.209,5.018-2.209,9.198v13.686c0,4.16,0.708,7.245,2.209,9.199c1.963,2.658,4.72,4.004,8.254,4.004
			c3.542,0,6.304-1.346,8.271-4.004C149.87,118.741,150.585,115.656,150.585,111.496z M143.509,112.838
			c0,3.625-1.096,5.419-3.387,5.419c-2.278,0-3.383-1.795-3.383-5.419V96.395c0-3.607,1.104-5.419,3.383-5.419
			c2.3,0,3.387,1.812,3.387,5.419V112.838z M176.784,124.151V85.074H169.7v29.878c-1.562,2.209-3.064,3.314-4.471,3.314
			c-0.958,0-1.501-0.548-1.665-1.661c-0.086-0.225-0.086-1.105-0.086-2.757V85.074h-7.059v30.91c0,2.757,0.241,4.621,0.621,5.816
			c0.707,1.989,2.286,2.917,4.573,2.917c2.58,0,5.281-1.575,8.094-4.815v4.258h7.076V124.151L176.784,124.151z"/>
		<g>
			<path fill="#FFFFFF" d="M154.589,163.556c-1.148,0-2.33,0.544-3.504,1.699v23.575c1.157,1.174,2.348,1.718,3.504,1.718
				c2.02,0,3.037-1.718,3.037-5.212V168.82C157.618,165.342,156.591,163.556,154.589,163.556z"/>
			<path fill="#FFFFFF" d="M180.581,163.556c-2.347,0-3.504,1.786-3.504,5.376v3.564h6.999v-3.564
				C184.076,165.342,182.911,163.556,180.581,163.556z"/>
			<path fill="#FFFFFF" d="M197.709,143.89c-1.406-6.161-6.446-10.718-12.53-11.39c-14.376-1.61-28.934-1.61-43.43-1.61
				c-14.493,0-29.046,0-43.422,1.61c-6.088,0.672-11.131,5.229-12.538,11.39c-2.024,8.811-2.041,18.389-2.041,27.433
				c0,9.034,0,18.612,2.024,27.424c1.415,6.161,6.45,10.699,12.529,11.39c14.376,1.605,28.92,1.605,43.431,1.605
				c14.497,0,29.055,0,43.431-1.605c6.083-0.69,11.114-5.229,12.538-11.39c2.02-8.785,2.037-18.381,2.037-27.424
				C199.72,162.261,199.738,152.701,197.709,143.89z M116.833,151.82h-8.405v44.597h-7.792V151.82H92.39v-7.33h24.442V151.82z
				 M138.013,196.417h-7.007v-4.237c-2.782,3.185-5.436,4.746-8.016,4.746c-2.252,0-3.814-0.924-4.513-2.882
				c-0.389-1.175-0.622-3.021-0.622-5.738v-30.583h7.007v28.477c0,1.64,0,2.503,0.065,2.727c0.186,1.088,0.708,1.641,1.652,1.641
				c1.394,0,2.869-1.079,4.435-3.271v-29.573h7.007v38.694H138.013z M164.634,184.792c0,3.59-0.242,6.161-0.708,7.801
				c-0.923,2.882-2.812,4.35-5.608,4.35c-2.486,0-4.894-1.398-7.232-4.271v3.745h-7.011v-51.918h7.011v16.952
				c2.261-2.779,4.66-4.203,7.232-4.203c2.796,0,4.677,1.468,5.608,4.367c0.466,1.553,0.708,4.107,0.708,7.766V184.792z
				 M191.083,178.346h-14.015v6.843c0,3.591,1.166,5.359,3.582,5.359c1.708,0,2.727-0.94,3.123-2.805
				c0.069-0.38,0.156-1.933,0.156-4.746h7.171v1.019c0,2.243-0.086,3.797-0.165,4.504c-0.224,1.562-0.775,2.969-1.622,4.22
				c-1.95,2.805-4.823,4.194-8.491,4.194c-3.659,0-6.454-1.312-8.474-3.952c-1.484-1.933-2.252-4.988-2.252-9.096v-13.539
				c0-4.15,0.673-7.18,2.166-9.13c2.019-2.641,4.814-3.952,8.388-3.952c3.521,0,6.308,1.312,8.267,3.952
				c1.467,1.977,2.175,4.979,2.175,9.13L191.083,178.346L191.083,178.346z"/>
		</g>
	</g>
</g>
</svg>
